<?xml version="1.0" encoding="iso-8859-1"?>
<!-- Generator: Adobe Illustrator 19.0.0, SVG Export Plug-In . SVG Version: 6.00 Build 0)  -->
<svg version="1.1" id="Capa_1" xmlns="http://www.w3.org/2000/svg" xmlns:xlink="http://www.w3.org/1999/xlink" x="0px" y="0px"
	 viewBox="0 0 512 512" style="enable-background:new 0 0 512 512;" xml:space="preserve">
<path style="fill:#F9F5F2;" d="M221.867,435.2h68.267c18.825-0.06,34.074-15.309,34.133-34.133V358.4H187.734v42.667
	C187.794,419.891,203.043,435.14,221.867,435.2z"/>
<path style="fill:#FDCA6E;" d="M472.406,437.931c-6.835-31.445-34.637-53.888-66.816-53.931h-81.323v17.067
	c-0.06,18.825-15.309,34.074-34.133,34.133h-68.267c-18.825-0.06-34.074-15.309-34.133-34.133V384h-81.323
	c-32.179,0.043-59.981,22.485-66.816,53.931l-13.995,65.536h460.8L472.406,437.931z"/>
<path style="fill:#A05D35;" d="M153.601,213.333V153.6h204.8v59.733c18.85,0,34.133,15.283,34.133,34.133v-102.4
	c0-75.409-61.124-136.533-136.533-136.533S119.467,69.658,119.467,145.067v102.4C119.467,228.617,134.751,213.333,153.601,213.333z"
	/>
<g>
	<path style="fill:#F9F5F2;" d="M119.467,247.467c0,18.85,15.283,34.133,34.133,34.133v-68.267
		C134.751,213.333,119.467,228.617,119.467,247.467z"/>
	<path style="fill:#F9F5F2;" d="M358.401,213.333V281.6c18.85,0,34.133-15.283,34.133-34.133S377.251,213.333,358.401,213.333z"/>
	<path style="fill:#F9F5F2;" d="M153.601,153.6v170.667c0,18.85,15.283,34.133,34.133,34.133h136.533
		c18.85,0,34.133-15.283,34.133-34.133V153.6H153.601z"/>
</g>
<g>
	<path style="fill:#231F20;" d="M480.743,436.113c-7.817-35.285-39.014-60.459-75.153-60.646h-72.789v-9.387
		c19.849-4.079,34.108-21.547,34.133-41.813V289.28c19.849-4.079,34.108-21.547,34.133-41.813v-102.4
		C401.067,64.947,336.12,0,256.001,0S110.934,64.947,110.934,145.067v102.4c0.026,20.267,14.285,37.734,34.133,41.813v34.987
		c0.026,20.267,14.285,37.734,34.133,41.813v9.387h-72.789c-36.147,0.188-67.354,25.387-75.162,60.681l-13.995,65.536
		c-0.981,4.608,1.954,9.139,6.562,10.129c0.589,0.128,1.186,0.188,1.783,0.188h460.8c4.71,0,8.533-3.823,8.533-8.533
		c0-0.597-0.06-1.195-0.188-1.783L480.743,436.113z M196.267,366.933h119.467v34.133c0,14.14-11.46,25.6-25.6,25.6h-68.267
		c-14.14,0-25.6-11.46-25.6-25.6V366.933z M273.067,187.733c-4.71,0-8.533,3.823-8.533,8.533v17.067h-17.067v-17.067
		c0-4.71-3.823-8.533-8.533-8.533h-68.267c-4.71,0-8.533,3.823-8.533,8.533v-34.133h187.733v34.133c0-4.71-3.823-8.533-8.533-8.533
		H273.067z M332.801,204.8V256h-51.2v-51.2H332.801z M230.401,204.8V256h-51.2v-51.2H230.401z M366.934,271.607v-48.171
		c0.273,0.102,0.555,0.154,0.853,0.256c0.469,0.188,0.93,0.41,1.391,0.623c0.947,0.444,1.86,0.939,2.748,1.493
		c0.418,0.256,0.853,0.512,1.237,0.794c1.007,0.717,1.963,1.502,2.859,2.355c0.188,0.179,0.401,0.333,0.58,0.512
		c1.041,1.058,1.997,2.193,2.842,3.413c0.23,0.341,0.427,0.717,0.649,1.067c0.58,0.93,1.109,1.894,1.57,2.884
		c0.213,0.469,0.41,0.947,0.589,1.434c0.393,0.998,0.708,2.031,0.956,3.072c0.119,0.469,0.256,0.922,0.341,1.399
		c0.299,1.562,0.452,3.14,0.452,4.727C383.992,258.313,377.157,267.981,366.934,271.607z M128.001,145.067
		c0-70.69,57.31-128,128-128s128,57.31,128,128v68.267c-0.41-0.299-0.853-0.555-1.271-0.853c-0.418-0.299-0.725-0.495-1.092-0.734
		c-2.005-1.314-4.122-2.458-6.323-3.413c-0.316-0.137-0.649-0.247-0.973-0.375c-2.347-0.973-4.779-1.732-7.262-2.261l-0.145-0.043
		l0,0V153.6c0-4.71-3.823-8.533-8.533-8.533h-204.8c-4.71,0-8.533,3.823-8.533,8.533v52.053l0,0h-0.119
		c-2.483,0.529-4.915,1.289-7.262,2.261c-0.324,0.128-0.657,0.239-0.973,0.375c-2.202,0.956-4.318,2.099-6.323,3.413
		c-0.367,0.239-0.734,0.478-1.092,0.734s-0.853,0.546-1.271,0.853L128.001,145.067z M128.001,247.467
		c0.009-1.579,0.171-3.157,0.478-4.702c0.085-0.478,0.222-0.93,0.341-1.399c0.256-1.05,0.572-2.074,0.956-3.081
		c0.188-0.478,0.375-0.956,0.589-1.417c0.461-0.998,0.981-1.963,1.57-2.893c0.222-0.35,0.418-0.725,0.649-1.067
		c0.845-1.22,1.801-2.355,2.842-3.413c0.179-0.179,0.393-0.333,0.58-0.512c0.896-0.853,1.852-1.638,2.859-2.355
		c0.401-0.282,0.853-0.538,1.237-0.794c0.887-0.555,1.801-1.05,2.748-1.493c0.461-0.213,0.922-0.435,1.391-0.623
		c0.265-0.102,0.555-0.154,0.853-0.256v48.171C134.853,268.006,128.009,258.33,128.001,247.467z M162.134,324.267v-59.733
		c0,4.71,3.823,8.533,8.533,8.533h68.267c4.71,0,8.533-3.823,8.533-8.533V230.4h17.067v34.133c0,4.71,3.823,8.533,8.533,8.533
		h68.267c4.71,0,8.533-3.823,8.533-8.533v59.733c0,14.14-11.46,25.6-25.6,25.6H187.734
		C173.594,349.867,162.134,338.406,162.134,324.267z M408.295,494.933l-7.347-44.075l-16.828,2.816l6.878,41.259H121.003
		l6.878-41.259l-16.828-2.816l-7.347,44.075H36.148l11.785-55.194c6.084-27.46,30.353-47.053,58.479-47.206h72.789v8.533
		c0.026,23.552,19.115,42.641,42.667,42.667h68.267c23.552-0.026,42.641-19.115,42.667-42.667v-8.533h72.789
		c28.117,0.154,52.386,19.729,58.47,47.181l11.793,55.219H408.295z"/>
	<circle style="fill:#231F20;" cx="307.201" cy="221.867" r="17.067"/>
	<circle style="fill:#231F20;" cx="204.801" cy="221.867" r="17.067"/>
</g>
<g>
</g>
<g>
</g>
<g>
</g>
<g>
</g>
<g>
</g>
<g>
</g>
<g>
</g>
<g>
</g>
<g>
</g>
<g>
</g>
<g>
</g>
<g>
</g>
<g>
</g>
<g>
</g>
<g>
</g>
</svg>
