<?xml version="1.0" encoding="iso-8859-1"?>
<!-- Generator: Adobe Illustrator 19.0.0, SVG Export Plug-In . SVG Version: 6.00 Build 0)  -->
<svg version="1.1" id="Capa_1" xmlns="http://www.w3.org/2000/svg" xmlns:xlink="http://www.w3.org/1999/xlink" x="0px" y="0px"
	 viewBox="0 0 512.003 512.003" style="enable-background:new 0 0 512.003 512.003;" xml:space="preserve">
<path style="fill:#A05D35;" d="M88.811,386.306c1.485-0.418,2.995-0.768,4.523-1.024c2.389-0.512,4.813-0.853,7.253-1.024
	c1.877-0.171,3.84-0.256,5.803-0.256h81.323v-25.6c-18.825,0.026-34.108-15.223-34.133-34.048c0-0.026,0-0.06,0-0.085V153.602
	h34.987c37.427,58.761,100.352,96.452,169.813,101.717v68.949c0,18.85-15.283,34.133-34.133,34.133v25.6h81.323
	c1.963,0,3.925,0.085,5.803,0.256c2.441,0.171,4.864,0.512,7.253,1.024c1.527,0.256,3.038,0.606,4.523,1.024
	c1.792,0.512,3.669,1.024,5.461,1.707c4.233,1.502,8.294,3.447,12.117,5.803c14.464-9.557,21.632-26.974,18.091-43.947
	l-48.384-220.672C395.004,58.72,332.565,8.502,260.416,8.536h-8.875C179.392,8.502,116.962,58.72,101.525,129.197L53.141,349.869
	c-3.541,16.973,3.627,34.389,18.091,43.947c3.823-2.355,7.885-4.301,12.117-5.803C85.141,387.33,87.019,386.818,88.811,386.306z"/>
<g>
	<path style="fill:#F9F5F2;" d="M188.565,153.602h-34.987v170.667c-0.026,18.825,15.223,34.108,34.048,34.133
		c0.026,0,0.06,0,0.085,0h136.533c18.85,0,34.133-15.283,34.133-34.133V255.32C288.917,250.055,225.993,212.363,188.565,153.602z"/>
	<polygon style="fill:#F9F5F2;" points="187.712,358.402 187.712,384.002 255.979,452.269 324.245,384.002 324.245,358.402 	"/>
</g>
<polygon style="fill:#F08AB7;" points="324.245,384.002 255.979,452.269 187.712,384.002 170.645,384.002 187.712,503.469 
	324.245,503.469 341.739,384.002 "/>
<g>
	<path style="fill:#C84339;" d="M106.389,384.002c-1.963,0-3.925,0.085-5.803,0.256c-2.441,0.171-4.864,0.512-7.253,1.024
		c-1.527,0.256-3.038,0.606-4.523,1.024c-1.792,0.512-3.669,1.024-5.461,1.707c-4.233,1.502-8.294,3.447-12.117,5.803
		c-16.196,9.694-27.657,25.668-31.659,44.117l-13.995,65.536h162.133l-17.067-119.467H106.389z"/>
	<path style="fill:#C84339;" d="M472.384,437.933c-4.002-18.449-15.462-34.423-31.659-44.117c-3.823-2.355-7.885-4.301-12.117-5.803
		c-1.792-0.683-3.669-1.195-5.461-1.707c-1.485-0.418-2.995-0.768-4.523-1.024c-2.389-0.512-4.813-0.853-7.253-1.024
		c-1.877-0.171-3.84-0.256-5.803-0.256h-63.829l-17.493,119.467h162.133L472.384,437.933z"/>
</g>
<g>
	<circle style="fill:#231F20;" cx="204.779" cy="221.869" r="17.067"/>
	<path style="fill:#231F20;" d="M480.73,436.124c-3.712-16.853-12.979-31.974-26.308-42.94
		c11.383-12.058,16.137-28.919,12.723-45.141l-48.384-220.672C402.82,52.764,336.713-0.407,260.416,0.002h-8.875
		C175.253-0.416,109.137,52.764,93.197,127.371l-48.41,220.791c-3.371,16.205,1.408,33.041,12.8,45.056
		c-13.338,10.965-22.605,26.095-26.317,42.957l-13.995,65.536c-0.973,4.608,1.98,9.139,6.596,10.112
		c0.563,0.119,1.135,0.179,1.707,0.179h460.8c4.71,0,8.533-3.823,8.533-8.533c0-0.597-0.06-1.195-0.188-1.783L480.73,436.124z
		 M61.478,351.695l48.384-220.672c14.276-66.748,73.429-114.321,141.679-113.954h8.875c68.25-0.358,127.386,47.215,141.653,113.954
		l48.384,220.553c2.492,11.776-1.493,23.987-10.453,32.026c-0.188-0.094-0.41-0.162-0.606-0.264
		c-2.526-1.254-5.12-2.372-7.774-3.337c-1.818-0.683-3.703-1.229-6.178-1.937c-1.655-0.478-3.328-0.862-5.026-1.152
		c-2.722-0.589-5.487-0.981-8.269-1.178c-2.125-0.196-4.361-0.29-6.579-0.29h-72.789v-9.361l0,0c0.154,0,0.29-0.102,0.444-0.137
		c2.432-0.529,4.804-1.263,7.108-2.21c0.811-0.333,1.553-0.777,2.338-1.161c1.57-0.734,3.089-1.562,4.557-2.475
		c0.853-0.546,1.613-1.161,2.415-1.766c1.28-0.939,2.509-1.946,3.669-3.021c0.759-0.717,1.468-1.459,2.176-2.227
		c1.058-1.143,2.048-2.347,2.97-3.601c0.623-0.853,1.22-1.707,1.783-2.56c0.845-1.365,1.604-2.765,2.287-4.215
		c0.444-0.905,0.905-1.792,1.28-2.731c0.631-1.673,1.161-3.379,1.579-5.12c0.222-0.853,0.512-1.655,0.683-2.517
		c0.538-2.654,0.819-5.359,0.845-8.073V255.32c0.009-4.471-3.43-8.201-7.893-8.533c-66.731-5.231-127.155-41.421-163.268-97.775
		c-1.57-2.458-4.275-3.942-7.185-3.942h-34.987c-4.71,0-8.533,3.823-8.533,8.533v170.667c0.009,11.341,4.514,22.204,12.527,30.225
		c1.826,1.766,3.797,3.371,5.897,4.796c0.606,0.418,1.229,0.785,1.852,1.169c1.587,0.981,3.234,1.86,4.941,2.628
		c0.64,0.29,1.271,0.597,1.929,0.853c2.261,0.913,4.599,1.63,6.989,2.142v9.387h-72.789c-2.219,0-4.454,0.094-6.391,0.273
		c-2.714,0.179-5.41,0.555-8.073,1.126c-2.048,0.35-4.07,0.819-6.059,1.408c-1.826,0.521-3.712,1.067-5.41,1.707
		c-2.697,0.99-5.325,2.125-7.893,3.413c-0.196,0.102-0.418,0.171-0.606,0.265C63.006,375.648,59.012,363.463,61.478,351.695z
		 M180.484,392.536h3.695l65.766,65.766c3.328,3.328,8.738,3.328,12.066,0l65.766-65.766h4.087l-14.993,102.4H195.119
		L180.484,392.536z M349.845,324.269c0,14.14-11.46,25.6-25.6,25.6H187.712c-14.114,0.026-25.574-11.383-25.6-25.498
		c0-0.034,0-0.068,0-0.102V162.136h21.837c37.777,56.388,98.449,93.312,165.897,100.958V324.269z M196.245,366.936h119.467v13.534
		l-59.733,59.733l-59.733-59.733L196.245,366.936L196.245,366.936z M120.981,494.936l6.878-41.259l-16.828-2.816l-7.347,44.075
		H36.126l11.785-55.202c3.558-16.171,13.628-30.157,27.827-38.665c3.345-2.065,6.903-3.763,10.615-5.069
		c1.374-0.512,2.807-0.913,4.762-1.468c1.323-0.375,2.662-0.674,4.011-0.905c2.057-0.435,4.139-0.717,6.238-0.853
		c1.621-0.154,3.328-0.222,5.026-0.222h56.849l14.635,102.4L120.981,494.936z M408.273,494.936l-7.347-44.075l-16.828,2.816
		l6.878,41.259h-56.858l14.993-102.4h56.457c1.707,0,3.413,0.068,5.214,0.23c2.167,0.162,4.318,0.469,6.434,0.93
		c1.417,0.247,2.816,0.58,4.198,0.99c1.382,0.393,2.816,0.794,4.309,1.357c3.712,1.323,7.27,3.038,10.615,5.12
		c14.148,8.508,24.166,22.46,27.708,38.588l11.785,55.185H408.273z"/>
</g>
<g>
</g>
<g>
</g>
<g>
</g>
<g>
</g>
<g>
</g>
<g>
</g>
<g>
</g>
<g>
</g>
<g>
</g>
<g>
</g>
<g>
</g>
<g>
</g>
<g>
</g>
<g>
</g>
<g>
</g>
</svg>
