<?xml version="1.0" encoding="iso-8859-1"?>
<!-- Generator: Adobe Illustrator 19.0.0, SVG Export Plug-In . SVG Version: 6.00 Build 0)  -->
<svg version="1.1" id="Capa_1" xmlns="http://www.w3.org/2000/svg" xmlns:xlink="http://www.w3.org/1999/xlink" x="0px" y="0px"
	 viewBox="0 0 512.001 512.001" style="enable-background:new 0 0 512.001 512.001;" xml:space="preserve">
<path style="fill:#F9F5F2;" d="M219.43,425.144h73.143c20.169-0.064,36.507-16.402,36.571-36.571v-45.714H182.859v45.714
	C182.923,408.75,199.261,425.089,219.43,425.144z"/>
<path style="fill:#C84339;" d="M487.864,428.069c-7.323-33.691-37.111-57.737-71.589-57.783h-87.131v18.286
	c-0.064,20.169-16.402,36.507-36.571,36.571H219.43c-20.169-0.064-36.507-16.402-36.571-36.571v-18.286H95.727
	c-34.478,0.046-64.265,24.091-71.589,57.783L9.144,498.286H219.43c0-20.197,16.375-36.571,36.571-36.571
	s36.571,16.375,36.571,36.571h210.286L487.864,428.069z"/>
<g>
	<path style="fill:#F9F5F2;" d="M109.716,224.001c0,20.197,16.375,36.571,36.571,36.571v-73.143
		C126.091,187.429,109.716,203.804,109.716,224.001z"/>
	<path style="fill:#F9F5F2;" d="M402.287,224.001c0-20.197-16.375-36.571-36.571-36.571v73.143
		C385.912,260.572,402.287,244.197,402.287,224.001z"/>
</g>
<path style="fill:#FDCA6E;" d="M365.716,32.001c0-10.103-8.183-18.286-18.286-18.286h-256v54.857
	c0,30.299,24.558,54.857,54.857,54.857h219.429V32.001z"/>
<path style="fill:#F9F5F2;" d="M146.287,123.429v182.857c0,20.197,16.375,36.571,36.571,36.571h146.286
	c20.197,0,36.571-16.375,36.571-36.571V123.429H146.287z"/>
<path style="fill:#43ADDC;" d="M256.001,461.715c-20.197,0-36.571,16.375-36.571,36.571h73.143
	C292.573,478.09,276.198,461.715,256.001,461.715z"/>
<g>
	<path style="fill:#231F20;" d="M496.806,426.122c-8.384-37.797-41.81-64.768-80.53-64.978h-77.989v-10.057
		c21.266-4.37,36.544-23.086,36.571-44.8v-37.486c24.741-5.029,40.731-29.157,35.703-53.897
		c-3.648-17.984-17.71-32.046-35.703-35.703v-147.2c0-15.15-12.279-27.429-27.429-27.429h-256c-5.047,0-9.143,4.096-9.143,9.143
		v54.857c0.064,31.781,23.406,58.706,54.857,63.269v47.36c-24.741,5.029-40.731,29.157-35.703,53.897
		c3.657,17.993,17.71,32.046,35.703,35.703v37.486c0.027,21.714,15.305,40.43,36.571,44.8v10.057H95.727
		c-38.729,0.21-72.165,27.2-80.53,65.015L0.203,496.376c-1.051,4.937,2.094,9.792,7.031,10.853c0.631,0.137,1.271,0.201,1.911,0.201
		h493.714c5.047,0,9.143-4.096,9.143-9.143c0-0.64-0.064-1.28-0.201-1.911L496.806,426.122z M374.859,198.136
		c14.281,5.038,21.778,20.709,16.741,34.99c-2.761,7.826-8.914,13.979-16.741,16.741V198.136z M137.144,249.866
		c-14.281-5.038-21.778-20.709-16.741-34.99c2.761-7.826,8.914-13.979,16.741-16.741V249.866z M146.287,114.286
		c-25.234-0.027-45.687-20.48-45.714-45.714V22.858H347.43c5.047,0,9.143,4.096,9.143,9.143v82.286H146.287z M155.43,306.286
		V132.572h201.143v173.714c0,15.15-12.279,27.429-27.429,27.429H182.859C167.709,333.715,155.43,321.436,155.43,306.286z
		 M320.001,352.001v36.571c0,15.15-12.279,27.429-27.429,27.429H219.43c-15.15,0-27.429-12.279-27.429-27.429v-36.571H320.001z
		 M230.136,489.144c5.038-14.281,20.709-21.778,34.99-16.741c7.826,2.761,13.979,8.914,16.741,16.741H230.136z M419.174,489.144
		l-7.872-47.223l-18.03,3.017l7.369,44.206h-99.84c-5.029-24.741-29.157-40.731-53.897-35.703
		c-17.993,3.657-32.046,17.71-35.703,35.703h-99.84l7.369-44.206l-18.03-3.017l-7.872,47.223H20.445l12.626-59.136
		c6.519-29.422,32.521-50.414,62.656-50.578h77.989v9.143c0.027,25.234,20.48,45.687,45.714,45.714h73.143
		c25.234-0.027,45.687-20.48,45.714-45.714v-9.143h77.989c30.126,0.165,56.128,21.147,62.656,50.551l12.626,59.163H419.174z"/>
	<circle style="fill:#231F20;" cx="310.859" cy="196.572" r="18.286"/>
	<circle style="fill:#231F20;" cx="201.144" cy="196.572" r="18.286"/>
</g>
<g>
</g>
<g>
</g>
<g>
</g>
<g>
</g>
<g>
</g>
<g>
</g>
<g>
</g>
<g>
</g>
<g>
</g>
<g>
</g>
<g>
</g>
<g>
</g>
<g>
</g>
<g>
</g>
<g>
</g>
</svg>
